<?xml version="1.0" encoding="UTF-8"?>
<svg version="1.1" xmlns="http://www.w3.org/2000/svg" width="228" height="165">
<path d="M0 0 C75.24 0 150.48 0 228 0 C228 54.45 228 108.9 228 165 C152.76 165 77.52 165 0 165 C0 110.55 0 56.1 0 0 Z " fill="#FDFDFD" transform="translate(0,0)"/>
<path d="M0 0 C5.24003856 0.45565553 5.24003856 0.45565553 7.6796875 2.203125 C9.5123471 4.69727712 9.33232604 6.43747138 9.25 9.5 C9.23453125 10.4590625 9.2190625 11.418125 9.203125 12.40625 C8.94751535 15.67018855 8.31844482 17.58720116 6.3125 20.1875 C3.3489289 22.51029897 1.68012333 22.4000134 -2 22 C-2.66 21.67 -3.32 21.34 -4 21 C-4 23.31 -4 25.62 -4 28 C-5.66611905 28.042721 -7.33382885 28.04063832 -9 28 C-10.73490927 26.26509073 -10.13198799 24.03891121 -10.13867188 21.72851562 C-10.13416016 21.01373047 -10.12964844 20.29894531 -10.125 19.5625 C-10.12306641 18.84126953 -10.12113281 18.12003906 -10.11914062 17.37695312 C-10.07489274 11.87546597 -9.73445427 6.45594602 -9 1 C-7.700625 1.020625 -6.40125 1.04125 -5.0625 1.0625 C-3.70834367 1.08399454 -2.35243917 1.07148199 -1 1 C-0.67 0.67 -0.34 0.34 0 0 Z " fill="#4A4A4A" transform="translate(106,115)"/>
<path d="M0 0 C4.18186522 0.04978411 5.87365916 0.14340564 9.5 2.375 C11.70661884 6.15777515 12.10694586 9.15618959 11.25 13.375 C9.8125 16.8125 9.8125 16.8125 7.25 19.375 C4.24259182 20.15661555 1.35019841 20.36175129 -1.75 20.375 C-1.75 23.015 -1.75 25.655 -1.75 28.375 C-6.625 27.5 -6.625 27.5 -7.75 26.375 C-7.85111378 23.49028347 -7.88862788 20.63456869 -7.875 17.75 C-7.87886719 16.95464844 -7.88273437 16.15929687 -7.88671875 15.33984375 C-7.8619395 0.24928101 -7.8619395 0.24928101 0 0 Z " fill="#494A49" transform="translate(125.75,108.625)"/>
<path d="M0 0 C2.08268593 -0.08126087 4.16628658 -0.13930839 6.25 -0.1875 C7.99023438 -0.23970703 7.99023438 -0.23970703 9.765625 -0.29296875 C13.280192 0.02537971 14.64871318 0.3925197 17 3 C17.99800065 6.99888537 17.82424758 11.1764434 16.1171875 14.953125 C13.78037606 18.14109292 12.01721968 18.99604794 8.1875 19.875 C7.135625 19.91625 6.08375 19.9575 5 20 C4.67 22.31 4.34 24.62 4 27 C2.35 26.67 0.7 26.34 -1 26 C-1.0292483 22.79168609 -1.04688189 19.58340693 -1.0625 16.375 C-1.07087891 15.47136719 -1.07925781 14.56773438 -1.08789062 13.63671875 C-1.10491895 8.97095711 -0.96829423 4.58986715 0 0 Z " fill="#464646" transform="translate(41,110)"/>
<path d="M0 0 C3.0625 0.1875 3.0625 0.1875 5.0625 2.1875 C8.37357316 9.85524837 8.71821274 17.94834959 9.0625 26.1875 C7.4125 26.1875 5.7625 26.1875 4.0625 26.1875 C3.7325 24.5375 3.4025 22.8875 3.0625 21.1875 C0.7525 21.1875 -1.5575 21.1875 -3.9375 21.1875 C-4.2675 23.1675 -4.5975 25.1475 -4.9375 27.1875 C-6.60361905 27.230221 -8.27132885 27.22813832 -9.9375 27.1875 C-10.9375 26.1875 -10.9375 26.1875 -11.21484375 23.73828125 C-10.8379808 18.91337392 -9.2364501 14.86394438 -7.5 10.375 C-7.01176758 9.06885742 -7.01176758 9.06885742 -6.51367188 7.73632812 C-3.67792761 0.23476134 -3.67792761 0.23476134 0 0 Z " fill="#424242" transform="translate(185.9375,109.8125)"/>
<path d="M0 0 C2.14453125 1.12109375 2.14453125 1.12109375 4 3 C4.57421875 5.99609375 4.57421875 5.99609375 4.6875 9.4375 C4.80960395 13.91629921 4.80960395 13.91629921 5.64453125 18.28515625 C5.76183594 18.85105469 5.87914062 19.41695312 6 20 C4 22 4 22 1.375 22.125 C0.59125 22.08375 -0.1925 22.0425 -1 22 C-1 21.34 -1 20.68 -1 20 C-1.53625 20.33 -2.0725 20.66 -2.625 21 C-5.5391061 22.22699204 -7.86867708 22.14233286 -11 22 C-12.54163175 18.9167365 -12.29747535 16.39121901 -12 13 C-10.4375 11.0625 -10.4375 11.0625 -8 10 C-4.25 9.8125 -4.25 9.8125 -1 10 C-1 8.68 -1 7.36 -1 6 C-2.65 6 -4.3 6 -6 6 C-6.33 6.99 -6.66 7.98 -7 9 C-8.32 8.67 -9.64 8.34 -11 8 C-10.67842796 5.02545866 -10.37860258 3.40664722 -8.3125 1.1875 C-5.29150017 -0.36382423 -3.35781526 -0.41972691 0 0 Z " fill="#464646" transform="translate(150,115)"/>
<path d="M0 0 C2.375 1.125 2.375 1.125 4 3 C4.45142487 6.09548485 4.52678315 8.04520554 3 10.8125 C-0.18068454 12.70103144 -3.33469879 12.69956547 -7 13 C-6.67 13.99 -6.34 14.98 -6 16 C-2.535 15.505 -2.535 15.505 1 15 C1.625 17.375 1.625 17.375 2 20 C-0.38125912 22.38125912 -1.10707538 22.34521641 -4.375 22.4375 C-7.74851794 22.33428448 -8.75696848 22.17782794 -11.5625 20.125 C-13.60677756 15.68091835 -13.9137501 11.80678626 -13 7 C-9.90195986 1.30692255 -6.34479384 -0.50758351 0 0 Z " fill="#3C3C3C" transform="translate(90,115)"/>
<path d="M0 0 C1.47906892 -0.02689216 2.95827483 -0.04634621 4.4375 -0.0625 C5.26121094 -0.07410156 6.08492187 -0.08570313 6.93359375 -0.09765625 C9 0 9 0 10 1 C10.25035974 4.30516934 10.18521952 7.62396041 10.1875 10.9375 C10.19974609 11.87013672 10.21199219 12.80277344 10.22460938 13.76367188 C10.22750977 15.10075195 10.22750977 15.10075195 10.23046875 16.46484375 C10.23457764 17.285896 10.23868652 18.10694824 10.24291992 18.95288086 C10 21 10 21 8 23 C5.28545044 23.32752234 2.74769241 23.1308425 0 23 C-1.58413359 21.41586641 -1.12979629 19.79022215 -1.1328125 17.59765625 C-1.13474609 16.26250977 -1.13474609 16.26250977 -1.13671875 14.90039062 C-1.13285156 13.96388672 -1.12898437 13.02738281 -1.125 12.0625 C-1.12886719 11.12986328 -1.13273438 10.19722656 -1.13671875 9.23632812 C-1.13542969 8.34494141 -1.13414062 7.45355469 -1.1328125 6.53515625 C-1.13168457 5.714104 -1.13055664 4.89305176 -1.12939453 4.04711914 C-1 2 -1 2 0 0 Z " fill="#548DEF" transform="translate(145,33)"/>
<path d="M0 0 C0.70125 0.00515625 1.4025 0.0103125 2.125 0.015625 C2.82625 0.01046875 3.5275 0.0053125 4.25 0 C6.125 0.265625 6.125 0.265625 8.125 2.265625 C8.36791992 4.12915039 8.36791992 4.12915039 8.35546875 6.36328125 C8.35353516 7.16443359 8.35160156 7.96558594 8.34960938 8.79101562 C8.33736328 9.62826172 8.32511719 10.46550781 8.3125 11.328125 C8.31185547 12.16923828 8.31121094 13.01035156 8.31054688 13.87695312 C8.26523184 20.12539316 8.26523184 20.12539316 7.125 21.265625 C5.64851124 21.36386496 4.16724583 21.39536019 2.6875 21.390625 C1.88441406 21.39320312 1.08132812 21.39578125 0.25390625 21.3984375 C-1.875 21.265625 -1.875 21.265625 -3.875 20.265625 C-3.92879226 17.30705091 -3.96857093 14.34944779 -4 11.390625 C-4.01675781 10.54886719 -4.03351563 9.70710938 -4.05078125 8.83984375 C-4.05722656 8.03417969 -4.06367188 7.22851562 -4.0703125 6.3984375 C-4.08602295 5.28299561 -4.08602295 5.28299561 -4.10205078 4.14501953 C-3.77207595 1.41367951 -2.71686923 0.38488981 0 0 Z " fill="#548DEE" transform="translate(146.875,60.734375)"/>
<path d="M0 0 C0.8146875 0.00257812 1.629375 0.00515625 2.46875 0.0078125 C3.2834375 0.00523438 4.098125 0.00265625 4.9375 0 C6.96875 0.1328125 6.96875 0.1328125 7.96875 1.1328125 C8.09564057 3.93620885 8.1539593 6.70399093 8.15625 9.5078125 C8.16849609 10.28898437 8.18074219 11.07015625 8.19335938 11.875 C8.20346426 15.80916773 8.19813367 17.78873699 5.96875 21.1328125 C3.2259992 21.60395988 0.77316103 21.31087034 -2.03125 21.1328125 C-3.58731751 19.57674499 -3.16095769 18.07323879 -3.1640625 15.9140625 C-3.16535156 15.06457031 -3.16664062 14.21507813 -3.16796875 13.33984375 C-3.16410156 12.44652344 -3.16023438 11.55320312 -3.15625 10.6328125 C-3.16011719 9.73949219 -3.16398437 8.84617187 -3.16796875 7.92578125 C-3.16667969 7.07628906 -3.16539063 6.22679688 -3.1640625 5.3515625 C-3.16293457 4.56716797 -3.16180664 3.78277344 -3.16064453 2.97460938 C-2.97602897 0.34679843 -2.62388699 0.17156184 0 0 Z " fill="#E2574C" transform="translate(94.03125,79.8671875)"/>
<path d="M0 0 C0.70125 0.00515625 1.4025 0.0103125 2.125 0.015625 C2.82625 0.01046875 3.5275 0.0053125 4.25 0 C6.125 0.265625 6.125 0.265625 8.125 2.265625 C8.390625 5.453125 8.390625 5.453125 8.375 9.265625 C8.38015625 10.52375 8.3853125 11.781875 8.390625 13.078125 C8.125 16.265625 8.125 16.265625 6.125 18.265625 C4.25 18.53125 4.25 18.53125 2.125 18.515625 C1.073125 18.52335937 1.073125 18.52335937 0 18.53125 C-1.875 18.265625 -1.875 18.265625 -3.875 16.265625 C-4.140625 13.078125 -4.140625 13.078125 -4.125 9.265625 C-4.13015625 8.0075 -4.1353125 6.749375 -4.140625 5.453125 C-3.8592804 2.0769898 -3.57773698 0.50684607 0 0 Z " fill="#F7C42E" transform="translate(111.875,64.734375)"/>
<path d="M0 0 C5.24003856 0.45565553 5.24003856 0.45565553 7.6796875 2.203125 C9.5123471 4.69727712 9.33232604 6.43747138 9.25 9.5 C9.23453125 10.4590625 9.2190625 11.418125 9.203125 12.40625 C8.94751535 15.67018855 8.31844482 17.58720116 6.3125 20.1875 C3.3773086 22.48805542 1.63820044 22.33074549 -2 22 C-2 20.35 -2 18.7 -2 17 C-0.35 16.34 1.3 15.68 3 15 C2.67 12.36 2.34 9.72 2 7 C0.02 7 -1.96 7 -4 7 C-4 7.66 -4 8.32 -4 9 C-4.99 9 -5.98 9 -7 9 C-7.33 6.69 -7.66 4.38 -8 2 C-6.865625 1.855625 -5.73125 1.71125 -4.5625 1.5625 C-1.19222799 1.38828522 -1.19222799 1.38828522 0 0 Z " fill="#494949" transform="translate(106,115)"/>
<path d="M0 0 C0.8146875 0.00257812 1.629375 0.00515625 2.46875 0.0078125 C3.2834375 0.00523438 4.098125 0.00265625 4.9375 0 C6.96875 0.1328125 6.96875 0.1328125 7.96875 1.1328125 C8.06850032 3.64417354 8.10757183 6.12184665 8.09375 8.6328125 C8.09761719 9.33535156 8.10148438 10.03789063 8.10546875 10.76171875 C8.09536378 16.00619872 8.09536378 16.00619872 6.96875 17.1328125 C5.47136876 17.2307182 3.96932108 17.26256114 2.46875 17.2578125 C1.6540625 17.26039062 0.839375 17.26296875 0 17.265625 C-2.03125 17.1328125 -2.03125 17.1328125 -3.03125 16.1328125 C-3.13100032 13.62145146 -3.17007183 11.14377835 -3.15625 8.6328125 C-3.16011719 7.93027344 -3.16398437 7.22773437 -3.16796875 6.50390625 C-3.15583472 0.20634304 -3.15583472 0.20634304 0 0 Z " fill="#47AA63" transform="translate(129.03125,82.8671875)"/>
<path d="M0 0 C4.29 0 8.58 0 13 0 C13.33 2.31 13.66 4.62 14 7 C12.35 7.33 10.7 7.66 9 8 C9 7.01 9 6.02 9 5 C8.01 5 7.02 5 6 5 C6.01160156 5.65226562 6.02320312 6.30453125 6.03515625 6.9765625 C6.08470994 11.7761914 5.99413751 16.27784685 5 21 C0.125 20.125 0.125 20.125 -1 19 C-1.20401881 12.5734076 -0.71948393 6.38541991 0 0 Z " fill="#4E4E4E" transform="translate(61,116)"/>
<path d="M0 0 C1.66611905 -0.042721 3.33382885 -0.04063832 5 0 C6 1 6 1 6.1328125 2.9765625 C6.10909086 11.01819912 5.60579475 18.98403739 5 27 C2.625 27.125 2.625 27.125 0 27 C-2 25 -2 25 -2.265625 23.14453125 C-2.21320092 15.32023682 -1.15406837 7.72813638 0 0 Z " fill="#4A4A4A" transform="translate(200,110)"/>
<path d="M0 0 C1.98 0 3.96 0 6 0 C6.19581346 4.47884439 6.3802636 8.95808426 6.5625 13.4375 C6.61857422 14.71689453 6.67464844 15.99628906 6.73242188 17.31445312 C6.78076172 18.52939453 6.82910156 19.74433594 6.87890625 20.99609375 C6.9260376 22.12200928 6.97316895 23.2479248 7.02172852 24.40795898 C7 27 7 27 6 28 C3.5 28.125 3.5 28.125 1 28 C0 27 0 27 -0.11352539 24.40795898 C-0.10828857 23.28204346 -0.10305176 22.15612793 -0.09765625 20.99609375 C-0.09443359 19.78115234 -0.09121094 18.56621094 -0.08789062 17.31445312 C-0.07951172 16.03505859 -0.07113281 14.75566406 -0.0625 13.4375 C-0.05798828 12.15423828 -0.05347656 10.87097656 -0.04882812 9.54882812 C-0.03699545 6.36583978 -0.02051068 3.18294238 0 0 Z " fill="#474747" transform="translate(159,109)"/>
<path d="M0 0 C0.70125 0.00515625 1.4025 0.0103125 2.125 0.015625 C2.82625 0.01046875 3.5275 0.0053125 4.25 0 C6.125 0.265625 6.125 0.265625 8.125 2.265625 C8.79886609 9.22890794 8.79886609 9.22890794 6.5 12.765625 C3.47360502 14.67703236 1.64343231 14.72455095 -1.875 14.265625 C-3.875 12.265625 -3.875 12.265625 -4.140625 9.953125 C-4.13546875 9.06625 -4.1303125 8.179375 -4.125 7.265625 C-4.13015625 6.37875 -4.1353125 5.491875 -4.140625 4.578125 C-3.80306577 1.63937407 -3.01925908 0.42772837 0 0 Z " fill="#3EA85A" transform="translate(129.875,63.734375)"/>
<path d="M0 0 C0.70125 0.00515625 1.4025 0.0103125 2.125 0.015625 C2.82625 0.01046875 3.5275 0.0053125 4.25 0 C6.125 0.265625 6.125 0.265625 8.125 2.265625 C8.58876812 9.56997283 8.58876812 9.56997283 6.125 13.265625 C3.9609375 13.55859375 3.9609375 13.55859375 1.5 13.453125 C0.68273437 13.42605469 -0.13453125 13.39898437 -0.9765625 13.37109375 C-1.60304688 13.33628906 -2.22953125 13.30148438 -2.875 13.265625 C-4.18265478 9.34266067 -4.0721417 6.40560067 -3.875 2.265625 C-1.875 0.265625 -1.875 0.265625 0 0 Z " fill="#F8BF1B" transform="translate(111.875,87.734375)"/>
<path d="M0 0 C3.625 0.1875 3.625 0.1875 6.625 2.1875 C6.953125 4.53515625 6.953125 4.53515625 6.875 7.25 C6.85953125 8.14847656 6.8440625 9.04695313 6.828125 9.97265625 C6.625 12.1875 6.625 12.1875 5.625 13.1875 C4.12761876 13.2854057 2.62557108 13.31724864 1.125 13.3125 C0.3103125 13.31507812 -0.504375 13.31765625 -1.34375 13.3203125 C-3.375 13.1875 -3.375 13.1875 -4.375 12.1875 C-4.47351171 10.35634117 -4.50472629 8.52130067 -4.5 6.6875 C-4.50257813 5.6871875 -4.50515625 4.686875 -4.5078125 3.65625 C-4.30255085 -0.1592019 -3.94125921 0.21895885 0 0 Z " fill="#5A91EF" transform="translate(148.375,86.8125)"/>
<path d="M0 0 C7.35678392 -0.36180905 7.35678392 -0.36180905 10 1.125 C11.46221217 3.86664781 11.31833733 5.94396162 11 9 C10.01 10.485 10.01 10.485 9 12 C6.87109375 12.328125 6.87109375 12.328125 4.4375 12.25 C3.63183594 12.23453125 2.82617188 12.2190625 1.99609375 12.203125 C0 12 0 12 -1 11 C-1.09823996 9.52351124 -1.12973519 8.04224583 -1.125 6.5625 C-1.12757812 5.75941406 -1.13015625 4.95632812 -1.1328125 4.12890625 C-1 2 -1 2 0 0 Z " fill="#69B680" transform="translate(127,47)"/>
<path d="M0 0 C4.29 0 8.58 0 13 0 C13.66 1.65 14.32 3.3 15 5 C10.70700357 6.26264601 8.12168689 5.62950412 4 4 C3.34 5.32 2.68 6.64 2 8 C1.34 7.34 0.68 6.68 0 6 C0 4.02 0 2.04 0 0 Z " fill="#343434" transform="translate(42,111)"/>
<path d="M0 0 C0.70125 0.00515625 1.4025 0.0103125 2.125 0.015625 C2.82625 0.01046875 3.5275 0.0053125 4.25 0 C6.125 0.265625 6.125 0.265625 8.125 2.265625 C8.79886609 9.22890794 8.79886609 9.22890794 6.5 12.765625 C3.47360502 14.67703236 1.64343231 14.72455095 -1.875 14.265625 C-3.875 12.265625 -3.875 12.265625 -4.140625 9.953125 C-4.13546875 9.06625 -4.1303125 8.179375 -4.125 7.265625 C-4.13015625 6.37875 -4.1353125 5.491875 -4.140625 4.578125 C-3.80306577 1.63937407 -3.01925908 0.42772837 0 0 Z M-2.875 2.265625 C-2.875 5.235625 -2.875 8.205625 -2.875 11.265625 C0.095 11.760625 0.095 11.760625 3.125 12.265625 C3.455 10.615625 3.785 8.965625 4.125 7.265625 C4.785 7.265625 5.445 7.265625 6.125 7.265625 C6.125 5.615625 6.125 3.965625 6.125 2.265625 C3.155 2.265625 0.185 2.265625 -2.875 2.265625 Z " fill="#6BB783" transform="translate(129.875,63.734375)"/>
<path d="M0 0 C0.36305732 5.44585987 0.36305732 5.44585987 -1.1875 7.8125 C-3.42031739 9.27538036 -5.37344067 9.64505955 -8 10 C-8 9.34 -8 8.68 -8 8 C-8.99 7.67 -9.98 7.34 -11 7 C-9.68 6.67 -8.36 6.34 -7 6 C-7 5.01 -7 4.02 -7 3 C-7.66 2.34 -8.32 1.68 -9 1 C-9 0.34 -9 -0.32 -9 -1 C-5.79937313 -2.60031344 -3.27728194 -1.03173691 0 0 Z " fill="#474747" transform="translate(94,118)"/>
<path d="M0 0 C0.70125 0.00515625 1.4025 0.0103125 2.125 0.015625 C2.82625 0.01046875 3.5275 0.0053125 4.25 0 C6.125 0.265625 6.125 0.265625 8.125 2.265625 C8.39491906 4.95401885 8.21237357 7.55704436 8.125 10.265625 C7.795 10.265625 7.465 10.265625 7.125 10.265625 C6.795 7.955625 6.465 5.645625 6.125 3.265625 C4.145 3.265625 2.165 3.265625 0.125 3.265625 C-1.13164978 6.17162761 -1.875 8.06167084 -1.875 11.265625 C0.765 11.265625 3.405 11.265625 6.125 11.265625 C6.125 11.925625 6.125 12.585625 6.125 13.265625 C3.155 13.265625 0.185 13.265625 -2.875 13.265625 C-4.18265478 9.34266067 -4.0721417 6.40560067 -3.875 2.265625 C-1.875 0.265625 -1.875 0.265625 0 0 Z " fill="#F6D166" transform="translate(111.875,87.734375)"/>
<path d="M0 0 C1.32 0 2.64 0 4 0 C3.979375 0.886875 3.95875 1.77375 3.9375 2.6875 C3.99286219 5.62169631 4.3305734 8.15493696 5 11 C3.02 11 1.04 11 -1 11 C-2.50662097 7.98675805 -2.17770373 5.31713623 -2 2 C-1.34 1.34 -0.68 0.68 0 0 Z " fill="#424242" transform="translate(140,126)"/>
<path d="M0 0 C1.67542976 0.28604898 3.34385343 0.61781233 5 1 C5 3.64 5 6.28 5 9 C3.35 9.66 1.7 10.32 0 11 C-1 10 -1 10 -1.1328125 7.96875 C-1.13023438 7.1540625 -1.12765625 6.339375 -1.125 5.5 C-1.12757812 4.6853125 -1.13015625 3.870625 -1.1328125 3.03125 C-1 1 -1 1 0 0 Z " fill="#E6E6E6" transform="translate(104,121)"/>
<path d="M0 0 C2.64 0 5.28 0 8 0 C9.125 6.625 9.125 6.625 8 10 C7.34 9.67 6.68 9.34 6 9 C6 8.01 6 7.02 6 6 C3.69 5.34 1.38 4.68 -1 4 C-0.67 2.68 -0.34 1.36 0 0 Z " fill="#353535" transform="translate(126,111)"/>
<path d="M0 0 C1.875 1.5 1.875 1.5 3 3 C0.03 2.505 0.03 2.505 -3 2 C-3 4.62113708 -2.68707555 6.50935112 -2 9 C-3.65 9.33 -5.3 9.66 -7 10 C-7 8.35 -7 6.7 -7 5 C-8.32 4.67 -9.64 4.34 -11 4 C-7.31943567 0.53593946 -5.09258268 -0.77495823 0 0 Z " fill="#626262" transform="translate(90,115)"/>
<path d="M0 0 C2 0 2 0 3.625 1.5 C4.07875 1.995 4.5325 2.49 5 3 C5.33 2.01 5.66 1.02 6 0 C6 2.64 6 5.28 6 8 C3.69 8 1.38 8 -1 8 C-2 6 -2 6 -1.0625 2.875 C-0.5365625 1.451875 -0.5365625 1.451875 0 0 Z " fill="#3DAA5A" transform="translate(130,50)"/>
<path d="M0 0 C2.01822917 0.06510417 4.03645833 0.13020833 6.0546875 0.1953125 C6.0546875 0.5253125 6.0546875 0.8553125 6.0546875 1.1953125 C3.7446875 1.5253125 1.4346875 1.8553125 -0.9453125 2.1953125 C-0.93371094 3.15953125 -0.92210937 4.12375 -0.91015625 5.1171875 C-0.90113281 6.38046875 -0.89210937 7.64375 -0.8828125 8.9453125 C-0.87121094 10.19828125 -0.85960937 11.45125 -0.84765625 12.7421875 C-0.92510223 15.48067751 -1.11750435 17.61411543 -1.9453125 20.1953125 C-2.6053125 20.1953125 -3.2653125 20.1953125 -3.9453125 20.1953125 C-3.99910476 17.23673841 -4.03888343 14.27913529 -4.0703125 11.3203125 C-4.08707031 10.47855469 -4.10382813 9.63679688 -4.12109375 8.76953125 C-4.12753906 7.96386719 -4.13398438 7.15820312 -4.140625 6.328125 C-4.15633545 5.21268311 -4.15633545 5.21268311 -4.17236328 4.07470703 C-3.83647563 1.29442408 -2.77688346 0.27880356 0 0 Z " fill="#8BAFEB" transform="translate(146.9453125,60.8046875)"/>
<path d="M0 0 C2.475 0.495 2.475 0.495 5 1 C5.625 3.3125 5.625 3.3125 6 6 C5.01 7.485 5.01 7.485 4 9 C2.68 9 1.36 9 0 9 C0 6.03 0 3.06 0 0 Z " fill="#E7E7E7" transform="translate(125,115)"/>
<path d="M0 0 C1.65 0 3.3 0 5 0 C5.33 2.31 5.66 4.62 6 7 C4.35 7.33 2.7 7.66 1 8 C1 6.68 1 5.36 1 4 C0.34 3.67 -0.32 3.34 -1 3 C-0.67 2.01 -0.34 1.02 0 0 Z " fill="#3C3C3C" transform="translate(69,116)"/>
<path d="M0 0 C2.475 0.495 2.475 0.495 5 1 C5.125 3.875 5.125 3.875 5 7 C4.34 7.66 3.68 8.32 3 9 C2.01 9 1.02 9 0 9 C0 6.03 0 3.06 0 0 Z " fill="#EEEEEE" transform="translate(47,115)"/>
<path d="M0 0 C2.64 0 5.28 0 8 0 C9.38125018 2.76250036 9.19079306 4.94731099 9 8 C8.34 8.66 7.68 9.32 7 10 C6.67 8.35 6.34 6.7 6 5 C5.01 4.67 4.02 4.34 3 4 C3 3.34 3 2.68 3 2 C1.02 2.99 1.02 2.99 -1 4 C-0.67 2.68 -0.34 1.36 0 0 Z " fill="#5BB175" transform="translate(129,48)"/>
<path d="M0 0 C-0.875 4.875 -0.875 4.875 -2 6 C-3.51928038 6.07179964 -5.04167482 6.08392007 -6.5625 6.0625 C-7.38878906 6.05347656 -8.21507813 6.04445312 -9.06640625 6.03515625 C-9.70449219 6.02355469 -10.34257813 6.01195312 -11 6 C-11 5.67 -11 5.34 -11 5 C-9.35 5 -7.7 5 -6 5 C-6.33 3.68 -6.66 2.36 -7 1 C-3.375 -1.125 -3.375 -1.125 0 0 Z " fill="#575757" transform="translate(92,131)"/>
<path d="M0 0 C2.0625 1.3125 2.0625 1.3125 4 4 C4.05898893 7.72702755 3.58315738 11.32357303 3 15 C2.67 15 2.34 15 2 15 C1.67 13.02 1.34 11.04 1 9 C-0.98 9 -2.96 9 -5 9 C-5.66 7.68 -6.32 6.36 -7 5 C-6.01 5 -5.02 5 -4 5 C-4 5.99 -4 6.98 -4 8 C-2.68 7.67 -1.36 7.34 0 7 C0 4.69 0 2.38 0 0 Z " fill="#C2C2C2" transform="translate(74,116)"/>
<path d="M0 0 C1.32 0 2.64 0 4 0 C4.33 2.31 4.66 4.62 5 7 C3.68 7.33 2.36 7.66 1 8 C-0.42944945 5.64561267 -1.08661261 4.51967567 -0.625 1.75 C-0.41875 1.1725 -0.2125 0.595 0 0 Z " fill="#919191" transform="translate(144,128)"/>
<path d="M0 0 C1.32 0 2.64 0 4 0 C5.125 4.75 5.125 4.75 4 7 C3.01 7 2.02 7 1 7 C0.67 4.69 0.34 2.38 0 0 Z " fill="#343434" transform="translate(98,117)"/>
<path d="M0 0 C2.625 0.9375 2.625 0.9375 5 2 C4.34 3.65 3.68 5.3 3 7 C1.2925002 5.71937515 -0.37373596 4.38232443 -2 3 C-2 2.34 -2 1.68 -2 1 C-1.34 0.67 -0.68 0.34 0 0 Z " fill="#333333" transform="translate(87,116)"/>
<path d="M0 0 C0.33 0.66 0.66 1.32 1 2 C-2 4 -2 4 -4.6875 3.625 C-5.450625 3.41875 -6.21375 3.2125 -7 3 C-7 2.01 -7 1.02 -7 0 C-2.25 -1.125 -2.25 -1.125 0 0 Z " fill="#D7D7D7" transform="translate(90,128)"/>
<path d="M0 0 C0.33 0 0.66 0 1 0 C1 3.63 1 7.26 1 11 C-0.65 11.66 -2.3 12.32 -4 13 C-3.625 10.0625 -3.625 10.0625 -3 7 C-2.34 6.67 -1.68 6.34 -1 6 C-0.34227572 2.97065509 -0.34227572 2.97065509 0 0 Z " fill="#C6C6C6" transform="translate(158,124)"/>
<path d="M0 0 C1.5 1 1.5 1 3 3 C3.39491399 5.79873829 3.227129 8.13817454 3 11 C2.34 11.66 1.68 12.32 1 13 C0.14256349 8.60563789 -0.08948558 4.47427924 0 0 Z " fill="#666666" transform="translate(134,111)"/>
<path d="M0 0 C1.65 0 3.3 0 5 0 C5 1.32 5 2.64 5 4 C3.02 4 1.04 4 -1 4 C-0.67 2.68 -0.34 1.36 0 0 Z " fill="#CDCDCD" transform="translate(144,121)"/>
<path d="M0 0 C0.66 0 1.32 0 2 0 C2 2.31 2 4.62 2 7 C0.68 7 -0.64 7 -2 7 C-1.125 2.25 -1.125 2.25 0 0 Z " fill="#C5C5C5" transform="translate(185,118)"/>
<path d="M0 0 C0.99 0.33 1.98 0.66 3 1 C2.67 2.32 2.34 3.64 2 5 C0.68 5 -0.64 5 -2 5 C-1.125 1.125 -1.125 1.125 0 0 Z " fill="#D2D2D2" transform="translate(85,120)"/>
<path d="M0 0 C0.33 0 0.66 0 1 0 C1 4.62 1 9.24 1 14 C0.67 14 0.34 14 0 14 C0 11.69 0 9.38 0 7 C-0.66 7 -1.32 7 -2 7 C-1.34 4.69 -0.68 2.38 0 0 Z " fill="#FBC221" transform="translate(118,68)"/>
</svg>
